<svg xmlns="http://www.w3.org/2000/svg" xmlns:xlink="http://www.w3.org/1999/xlink" width="35.718" height="34.277" viewBox="0 0 35.718 34.277">
  <defs>
    <clipPath id="clip-path">
      <rect id="Rectangle_61" data-name="Rectangle 61" width="35.718" height="34.277" fill="none"/>
    </clipPath>
  </defs>
  <g id="Groupe_126" data-name="Groupe 126" transform="translate(0 0)">
    <g id="Groupe_125" data-name="Groupe 125" transform="translate(0 0)" clip-path="url(#clip-path)">
      <path id="Tracé_131" data-name="Tracé 131" d="M6.642,1H28.51l5.319,9.282H1.67Z" transform="translate(0.08 0.048)" fill="none" stroke="#fff" stroke-width="2"/>
      <path id="Tracé_132" data-name="Tracé 132" d="M1.666,11.431c-.009,4.729,7.884,4.77,7.774.021l.24.221c-2.615-.006-5.232-.128-8.014-.242m0,0c2.626-.117,5.443-.242,8.232-.242.6,5.506-8.625,5.736-8.232.242" transform="translate(0.079 0.537)" fill="#fff"/>
      <path id="Tracé_133" data-name="Tracé 133" d="M9.462,11.431c-.009,4.729,7.884,4.77,7.773.021l.241.221c-2.615-.006-5.232-.128-8.014-.242m0,0c2.626-.117,5.443-.242,8.232-.242.6,5.506-8.625,5.736-8.232.242" transform="translate(0.453 0.537)" fill="#fff"/>
      <path id="Tracé_134" data-name="Tracé 134" d="M17.106,11.431c-.009,4.729,7.884,4.77,7.774.021l.24.221c-2.615-.006-5.232-.128-8.014-.242m0,0c2.626-.117,5.443-.242,8.232-.242.6,5.506-8.625,5.736-8.232.242" transform="translate(0.82 0.537)" fill="#fff"/>
      <path id="Tracé_135" data-name="Tracé 135" d="M24.518,11.431c-.009,4.729,7.885,4.77,7.775.021l.24.221c-2.615-.006-5.234-.128-8.015-.242m0,0c2.627-.117,5.444-.242,8.233-.242.6,5.506-8.626,5.736-8.233.242" transform="translate(1.175 0.537)" fill="#fff"/>
      <path id="Tracé_136" data-name="Tracé 136" d="M5.091,15.723V32.475H30.059V15.723" transform="translate(0.244 0.754)" fill="none" stroke="#fff" stroke-width="2"/>
    </g>
  </g>
</svg>
